<svg width="512" height="512" viewBox="0 0 512 512" fill="none" xmlns="http://www.w3.org/2000/svg" role="img" aria-labelledby="title desc">
  <title id="title">UIUC Atlas Logo</title>
  <desc id="desc">A UIUC-orange capital I over a light gray globe outline.</desc>

  <!-- White background; remove this rect if you want transparency -->
  <!-- Globe / atlas background -->
  <g stroke="#C8C8C8" stroke-width="16" stroke-linecap="round" stroke-linejoin="round" opacity="0.85">
    <circle cx="256" cy="256" r="190"/>
    <path d="M256 66 C205 116 178 184 178 256 C178 328 205 396 256 446"/>
    <path d="M256 66 C307 116 334 184 334 256 C334 328 307 396 256 446"/>
    <path d="M256 66 V122"/>
    <path d="M256 390 V446"/>
    <path d="M78 256 H206"/>
    <path d="M306 256 H434"/>
    <path d="M128 126 C166 154 210 169 256 169 C302 169 346 154 384 126"/>
    <path d="M128 386 C166 358 210 343 256 343 C302 343 346 358 384 386"/>
  </g>

  <!-- Illinois-style capital I in UIUC orange (#FF5F05) -->
  <path fill="#FF5F05" d="
    M168 112
    H344
    V145
    H306
    C292 145 282 155 282 169
    V343
    C282 357 292 367 306 367
    H344
    V400
    H168
    V367
    H206
    C220 367 230 357 230 343
    V169
    C230 155 220 145 206 145
    H168
    V112
    Z"/>
</svg>
